<svg id="Layer_1" enable-background="new 0 0 128 128" height="512" viewBox="0 0 128 128" width="512" xmlns="http://www.w3.org/2000/svg"><g><path d="m97.833 74.358v-52.358c0-2.757-2.243-5-5-5h-14.063c-.616-2.064-2.509-3.583-4.771-3.583h-10.765c-1.033-4.475-5.073-7.75-9.734-7.75s-8.702 3.275-9.734 7.75h-10.766c-2.261 0-4.155 1.519-4.771 3.583h-14.063c-2.757 0-5 2.243-5 5v99.333c0 2.757 2.243 5 5 5h82.667c14.336 0 26-11.663 26-26 0-14.001-11.125-25.446-25-25.975z" fill="#e6e7e8"/><g><path d="m67.833 96.333c0-13.807 11.193-25 25-25v-53.333c0-2.209-1.791-4-4-4h-78.666c-2.209 0-4 1.791-4 4v99.333c0 2.209 1.791 4 4 4h82.667c-13.808 0-25.001-11.192-25.001-25z" fill="#6dc9f7"/><path d="m67.833 96.333c0-11.376 7.601-20.971 18-23.999v-49.334c0-1.105-.895-2-2-2h-68.666c-1.105 0-2 .895-2 2v89.333c0 1.104.895 2 2 2h60.327c-4.72-4.547-7.661-10.928-7.661-18z" fill="#d4fbff"/><g><path d="m43.999 70.549c1.73.573 3.578.887 5.501.887 9.665 0 17.5-7.835 17.5-17.5h-17.5z" fill="#ffd7e5"/><path d="m49.5 36.437c-9.665 0-17.5 7.835-17.5 17.5 0 7.742 5.03 14.306 11.999 16.613l5.501-16.613z" fill="#0089ef"/><path d="m49.5 36.437v17.5h17.5c0-9.665-7.835-17.5-17.5-17.5z" fill="#fa759e"/></g><path d="m58.403 10.417c-.61-4.377-4.358-7.75-8.903-7.75s-8.293 3.373-8.903 7.75h-11.597c-2.209 0-4 1.791-4 4v8.5c0 1.105.895 2 2 2h45c1.105 0 2-.895 2-2v-8.5c0-2.209-1.791-4-4-4z" fill="#0089ef"/><path d="m72 21.917h-45c-1.105 0-2-.895-2-2v3c0 1.105.895 2 2 2h45c1.105 0 2-.895 2-2v-3c0 1.104-.895 2-2 2z" fill="#fff"/><circle cx="49.5" cy="11.667" fill="#fff" r="3"/><g><circle cx="92.833" cy="96.333" fill="#fa759e" r="25"/><circle cx="92.833" cy="96.333" fill="#ffd7e5" r="19.091"/><g fill="#3a2c60"><path d="m6.167 88.196c.552 0 1-.447 1-1v-7.125c0-.553-.448-1-1-1s-1 .447-1 1v7.125c0 .553.447 1 1 1z"/><path d="m43.685 71.499h.001c1.881.622 3.837.937 5.814.937 10.201 0 18.5-8.299 18.5-18.5s-8.299-18.5-18.5-18.5-18.5 8.299-18.5 18.5c0 7.994 5.098 15.052 12.685 17.563zm5.815-1.063c-1.43 0-2.848-.185-4.228-.551l3.964-11.974.985-2.976h15.749c-.519 8.635-7.708 15.501-16.47 15.501zm16.47-17.5h-15.47v-15.47c8.303.5 14.971 7.168 15.47 15.47zm-17.47-15.469v16.309l-1.145 3.458-3.982 12.024c-6.244-2.491-10.373-8.528-10.373-15.322 0-8.761 6.866-15.951 15.5-16.469z"/><path d="m49.5 15.667c2.206 0 4-1.794 4-4s-1.794-4-4-4-4 1.794-4 4 1.794 4 4 4zm0-6c1.103 0 2 .897 2 2s-.897 2-2 2-2-.897-2-2 .897-2 2-2z"/><path d="m62 90.229h-37c-.552 0-1 .447-1 1s.448 1 1 1h37c.552 0 1-.447 1-1s-.448-1-1-1z"/><path d="m65 80.229h-40c-.552 0-1 .447-1 1s.448 1 1 1h40c.552 0 1-.447 1-1s-.448-1-1-1z"/><path d="m62 100.229h-37c-.552 0-1 .447-1 1s.448 1 1 1h37c.552 0 1-.447 1-1s-.448-1-1-1z"/><path d="m93.834 70.359v-52.359c0-2.757-2.243-5-5-5h-14.063c-.616-2.064-2.51-3.583-4.771-3.583h-10.766c-1.033-4.475-5.073-7.75-9.734-7.75s-8.702 3.275-9.734 7.75h-10.766c-2.261 0-4.155 1.519-4.771 3.583h-14.062c-2.757 0-5 2.243-5 5v58.071c0 .553.448 1 1 1s1-.447 1-1v-58.071c0-1.654 1.346-3 3-3h13.833v5h-8.833c-1.654 0-3 1.346-3 3v89.333c0 1.654 1.346 3 3 3h59.943c2.244 2.095 4.856 3.8 7.73 5.001h-72.673c-1.654 0-3-1.346-3-3v-26.263c0-.553-.448-1-1-1s-1 .447-1 1v26.263c0 2.757 2.243 5 5 5h82.667c14.336 0 26-11.663 26-26 0-14.002-11.126-25.447-25-25.975zm5.23 15.44c-1.274-.664-2.604-1.104-3.998-1.289v-1.819c0-.595-.182-1.074-.546-1.438s-.843-.546-1.438-.546c-.574 0-1.048.182-1.422.546-.375.364-.562.843-.562 1.438v1.885c-2.051.353-3.71 1.169-4.978 2.447-1.267 1.279-1.901 2.811-1.901 4.597 0 1.521.38 2.734 1.141 3.639.76.904 1.67 1.565 2.728 1.984.629.249 1.371.498 2.202.746l-3.304 4.591c-.007-.004-.015-.008-.022-.012-.618-.353-1.136-.53-1.555-.53-.441 0-.832.21-1.175.629-.341.419-.512.904-.512 1.456 0 .419.072.765.215 1.041.134.259.368.49.686.699l-6.676 9.276c-5.546-4.4-9.113-11.191-9.113-18.804 0-13.233 10.767-24 24-24 4.834 0 9.336 1.442 13.107 3.911zm-4.362 13.462c.595.198 1.097.474 1.505.827s.611.805.611 1.355c0 .904-.352 1.604-1.058 2.1-.705.496-1.719.744-3.042.744-.992 0-1.946-.138-2.86-.413-.345-.104-.7-.238-1.06-.388l3.545-4.925c1.012.28 1.805.514 2.359.7zm-1.651-5.108c-.59-.162-1.095-.312-1.491-.449-.639-.221-1.169-.524-1.588-.91-.419-.385-.628-.887-.628-1.505 0-.882.357-1.587 1.074-2.117.716-.529 1.67-.793 2.86-.793 1.037 0 1.913.143 2.63.429.231.093.488.225.738.347zm-1.217-76.153v52.359c-1.714.065-3.385.298-5 .681v-48.04c0-1.654-1.346-3-3-3h-8.834v-5h13.833c1.655 0 3.001 1.346 3.001 3zm-65.834-3.583c0-1.654 1.346-3 3-3h11.597c.499 0 .921-.368.99-.862.547-3.927 3.949-6.888 7.913-6.888s7.366 2.961 7.913 6.888c.069.494.491.862.99.862h11.597c1.654 0 3 1.346 3 3v8.5c0 .552-.449 1-1 1h-45c-.551 0-1-.448-1-1zm-11.833 97.916v-89.333c0-.552.449-1 1-1h8.833v.917c0 1.654 1.346 3 3 3h45c1.654 0 3-1.346 3-3v-.917h8.833c.551 0 1 .448 1 1v48.599c-10.433 3.383-18 13.189-18 24.735 0 6.495 2.4 12.437 6.352 16.999h-58.018c-.552 0-1-.448-1-1zm78.667 8.001c-4.904 0-9.468-1.481-13.272-4.016l6.798-9.445c.42.2.848.394 1.314.557 1.136.396 2.309.649 3.523.76v1.786c0 .595.187 1.074.562 1.438s.848.546 1.422.546c.595 0 1.075-.182 1.439-.546.363-.364.545-.843.545-1.438v-1.885c2.072-.352 3.721-1.141 4.945-2.365 1.224-1.223 1.836-2.728 1.836-4.514 0-1.499-.369-2.696-1.108-3.588-.74-.893-1.62-1.543-2.646-1.951-.828-.33-1.856-.655-3.066-.978l3.282-4.559c.34.197.614.332.81.395.209.066.435.099.677.099.441 0 .832-.21 1.174-.629.341-.419.512-.903.512-1.456 0-.396-.072-.739-.215-1.025-.124-.248-.332-.467-.597-.666l6.798-9.445c5.634 4.396 9.267 11.242 9.267 18.925 0 13.233-10.767 24-24 24z"/></g></g></g></g></svg>